<svg width="160" height="160" viewBox="0 0 160 160" fill="none" xmlns="http://www.w3.org/2000/svg">
<path d="M145 30H30C26.6859 30.0037 23.5087 31.3219 21.1653 33.6653C18.8219 36.0087 17.5037 39.1859 17.5 42.5V47.5H15C11.6859 47.5037 8.50867 48.8219 6.16528 51.1653C3.82188 53.5087 2.50372 56.6859 2.5 60V120C2.50372 123.314 3.82188 126.491 6.16528 128.835C8.50867 131.178 11.6859 132.496 15 132.5H130C133.314 132.496 136.491 131.178 138.835 128.835C141.178 126.491 142.496 123.314 142.5 120V115H145C148.314 114.996 151.491 113.678 153.835 111.335C156.178 108.991 157.496 105.814 157.5 102.5V42.5C157.496 39.1859 156.178 36.0087 153.835 33.6653C151.491 31.3219 148.314 30.0037 145 30ZM15 52.5H130C131.988 52.5022 133.895 53.2931 135.301 54.6992C136.707 56.1052 137.498 58.0116 137.5 60H7.5C7.50223 58.0116 8.29313 56.1052 9.69917 54.6992C11.1052 53.2931 13.0116 52.5022 15 52.5ZM7.5 65H137.5V77.5H7.5V65ZM137.5 120C137.498 121.988 136.707 123.895 135.301 125.301C133.895 126.707 131.988 127.498 130 127.5H15C13.0116 127.498 11.1052 126.707 9.69917 125.301C8.29313 123.895 7.50223 121.988 7.5 120V82.5H137.5V120ZM152.5 102.5C152.498 104.488 151.707 106.395 150.301 107.801C148.895 109.207 146.988 109.998 145 110H142.5V60C142.496 56.6859 141.178 53.5087 138.835 51.1653C136.491 48.8219 133.314 47.5037 130 47.5H22.5V42.5C22.5022 40.5116 23.2931 38.6052 24.6992 37.1992C26.1052 35.7931 28.0116 35.0022 30 35H145C146.988 35.0022 148.895 35.7931 150.301 37.1992C151.707 38.6052 152.498 40.5116 152.5 42.5V102.5Z" fill="white"/>
<path d="M39.9998 92.5C37.8419 92.4987 35.7094 92.9659 33.7498 93.8694C31.4644 92.8196 28.9519 92.3612 26.4431 92.5365C23.9343 92.7117 21.5098 93.5149 19.3927 94.8722C17.2755 96.2295 15.5336 98.0974 14.3271 100.304C13.1206 102.511 12.4883 104.985 12.4883 107.5C12.4883 110.015 13.1206 112.489 14.3271 114.696C15.5336 116.903 17.2755 118.77 19.3927 120.128C21.5098 121.485 23.9343 122.288 26.4431 122.463C28.9519 122.639 31.4644 122.18 33.7498 121.131C35.787 122.065 38.0078 122.531 40.2487 122.494C42.4897 122.457 44.6939 121.918 46.6992 120.917C48.7046 119.916 50.4601 118.478 51.8367 116.71C53.2133 114.941 54.176 112.886 54.654 110.696C55.132 108.507 55.1131 106.238 54.5988 104.056C54.0845 101.875 53.0879 99.8364 51.6821 98.0908C50.2763 96.3452 48.4972 94.9369 46.4755 93.9694C44.4538 93.0019 42.241 92.4998 39.9998 92.5ZM37.4998 107.5C37.4997 108.998 37.1626 110.476 36.5135 111.826C35.8643 113.176 34.9198 114.363 33.7498 115.298C32.5797 114.363 31.6351 113.176 30.986 111.826C30.3368 110.476 29.9998 108.998 29.9998 107.5C29.9998 106.002 30.3368 104.524 30.986 103.174C31.6351 101.824 32.5797 100.637 33.7498 99.7022C34.9198 100.637 35.8643 101.824 36.5135 103.174C37.1626 104.524 37.4997 106.002 37.4998 107.5ZM17.4998 107.5C17.4972 106.08 17.7977 104.675 18.3813 103.38C18.965 102.085 19.8182 100.93 20.884 99.9912C21.9499 99.0524 23.2038 98.3519 24.562 97.9365C25.9202 97.5211 27.3514 97.4003 28.7601 97.5822C26.3374 100.318 24.9998 103.846 24.9998 107.5C24.9998 111.154 26.3374 114.682 28.7601 117.418C27.3514 117.6 25.9202 117.479 24.562 117.063C23.2038 116.648 21.9499 115.948 20.884 115.009C19.8182 114.07 18.965 112.915 18.3813 111.62C17.7977 110.325 17.4972 108.92 17.4998 107.5ZM39.9998 117.5C39.5783 117.499 39.1574 117.472 38.7394 117.418C41.1621 114.682 42.4997 111.154 42.4997 107.5C42.4997 103.846 41.1621 100.318 38.7394 97.5822C40.0962 97.4072 41.4745 97.5124 42.7889 97.8914C44.1034 98.2703 45.3261 98.915 46.3815 99.7854C47.4369 100.656 48.3024 101.734 48.9246 102.952C49.5468 104.17 49.9124 105.503 49.9988 106.868C50.0852 108.234 49.8905 109.602 49.4269 110.889C48.9632 112.176 48.2404 113.355 47.3032 114.351C46.3659 115.348 45.2342 116.141 43.978 116.683C42.7218 117.224 41.3678 117.503 39.9998 117.5Z" fill="white"/>
<path d="M127.5 95H85C84.337 95 83.7011 95.2634 83.2322 95.7322C82.7634 96.2011 82.5 96.837 82.5 97.5C82.5 98.163 82.7634 98.7989 83.2322 99.2678C83.7011 99.7366 84.337 100 85 100H127.5C128.163 100 128.799 99.7366 129.268 99.2678C129.737 98.7989 130 98.163 130 97.5C130 96.837 129.737 96.2011 129.268 95.7322C128.799 95.2634 128.163 95 127.5 95Z" fill="white"/>
<path d="M127.5 102.5H95C94.337 102.5 93.7011 102.763 93.2322 103.232C92.7634 103.701 92.5 104.337 92.5 105C92.5 105.663 92.7634 106.299 93.2322 106.768C93.7011 107.237 94.337 107.5 95 107.5H127.5C128.163 107.5 128.799 107.237 129.268 106.768C129.737 106.299 130 105.663 130 105C130 104.337 129.737 103.701 129.268 103.232C128.799 102.763 128.163 102.5 127.5 102.5Z" fill="white"/>
<path d="M112.5 110H110C109.337 110 108.701 110.263 108.232 110.732C107.763 111.201 107.5 111.837 107.5 112.5C107.5 113.163 107.763 113.799 108.232 114.268C108.701 114.737 109.337 115 110 115H112.5C113.163 115 113.799 114.737 114.268 114.268C114.737 113.799 115 113.163 115 112.5C115 111.837 114.737 111.201 114.268 110.732C113.799 110.263 113.163 110 112.5 110Z" fill="white"/>
<path d="M127.5 110H120C119.337 110 118.701 110.263 118.232 110.732C117.763 111.201 117.5 111.837 117.5 112.5C117.5 113.163 117.763 113.799 118.232 114.268C118.701 114.737 119.337 115 120 115H127.5C128.163 115 128.799 114.737 129.268 114.268C129.737 113.799 130 113.163 130 112.5C130 111.837 129.737 111.201 129.268 110.732C128.799 110.263 128.163 110 127.5 110Z" fill="white"/>
</svg>
