<svg width="19" height="25" viewBox="0 0 19 25" fill="none" xmlns="http://www.w3.org/2000/svg">
<path d="M9.50034 0C4.50791 0 0.446289 4.06162 0.446289 9.054C0.446289 15.2497 8.54878 24.3454 8.89375 24.7295C9.21777 25.0904 9.7835 25.0898 10.1069 24.7295C10.4519 24.3454 18.5544 15.2497 18.5544 9.054C18.5543 4.06162 14.4927 0 9.50034 0ZM9.50034 13.6093C6.98852 13.6093 4.94507 11.5658 4.94507 9.054C4.94507 6.54219 6.98857 4.49873 9.50034 4.49873C12.0121 4.49873 14.0556 6.54224 14.0556 9.05405C14.0556 11.5659 12.0121 13.6093 9.50034 13.6093Z" fill="url(#paint0_linear)"/>
<defs>
<linearGradient id="paint0_linear" x1="9.50034" y1="0" x2="9.50034" y2="25" gradientUnits="userSpaceOnUse">
<stop stop-color="#0092D9"/>
<stop offset="1" stop-color="#004691"/>
</linearGradient>
</defs>
</svg>
