<svg width="30" height="30" viewBox="0 0 30 30" fill="none" xmlns="http://www.w3.org/2000/svg">
<g clip-path="url(#clip0)">
<path d="M16.6574 15.001L29.6568 2.00155C30.1144 1.54388 30.1144 0.801849 29.6568 0.344233C29.1991 -0.113384 28.4571 -0.113442 27.9995 0.344233L15 13.3437L2.00058 0.344233C1.5429 -0.113442 0.800872 -0.113442 0.343256 0.344233C-0.11436 0.801908 -0.114419 1.54394 0.343256 2.00155L13.3427 15.001L0.343256 28.0004C-0.114419 28.4581 -0.114419 29.2001 0.343256 29.6578C0.572064 29.8866 0.872005 30.0009 1.17195 30.0009C1.47189 30.0009 1.77177 29.8866 2.00064 29.6578L15 16.6583L27.9994 29.6578C28.2282 29.8866 28.5281 30.0009 28.8281 30.0009C29.128 30.0009 29.4279 29.8866 29.6568 29.6578C30.1144 29.2001 30.1144 28.458 29.6568 28.0004L16.6574 15.001Z" fill="url(#paint0_linear)"/>
</g>
<defs>
<linearGradient id="paint0_linear" x1="15" y1="0.000976562" x2="15" y2="30.0009" gradientUnits="userSpaceOnUse">
<stop stop-color="#0092D9"/>
<stop offset="1" stop-color="#004691"/>
</linearGradient>
<clipPath id="clip0">
<rect width="30" height="30" fill="white"/>
</clipPath>
</defs>
</svg>
