<svg width="160" height="160" viewBox="0 0 160 160" fill="none" xmlns="http://www.w3.org/2000/svg">
<g clip-path="url(#clip0)">
<path d="M152 3.99574H8C3.58271 3.99574 0 7.57845 0 11.9957V102.662C0 104.136 1.19317 105.329 2.66649 105.329H13.3335V147.996C13.3335 152.413 16.9162 155.996 21.3335 155.996H69.3335C73.7508 155.996 77.3335 152.413 77.3335 147.996V126.662H104V121.329H98.0827L94.0827 105.329H109.334V147.996C109.334 152.413 112.916 155.996 117.334 155.996H138.666C143.084 155.996 146.666 152.413 146.666 147.996V105.329H157.334C158.807 105.329 160 104.136 160 102.662V11.9957C160 7.57845 156.417 3.99574 152 3.99574ZM8 9.32925H152C153.473 9.32925 154.666 10.5224 154.666 11.9957V83.9957H77.3335C77.3335 79.5785 73.7508 75.9957 69.3335 75.9957H21.3335C16.9162 75.9957 13.3335 79.5785 13.3335 83.9957H5.33351V11.9957C5.33351 10.5224 6.52668 9.32925 8 9.32925ZM72 86.6622H18.6665V83.9957C18.6665 82.5224 19.8602 81.3293 21.3335 81.3293H69.3335C70.8068 81.3293 72 82.5224 72 83.9957V86.6622ZM18.6665 91.9957H72V139.996H18.6665V91.9957ZM5.33351 99.9957V89.3293H13.3335V99.9957H5.33351ZM69.3335 150.662H21.3335C19.8602 150.662 18.6665 149.469 18.6665 147.996V145.329H72V147.996C72 149.469 70.8068 150.662 69.3335 150.662ZM92.5838 121.329H77.3335V105.329H88.5838L92.5838 121.329ZM114.666 99.9957C114.666 98.5224 115.86 97.3293 117.334 97.3293H138.666C140.14 97.3293 141.334 98.5224 141.334 99.9957H114.666ZM141.334 105.329V142.662H114.666V105.329H141.334ZM138.666 150.662H117.334C115.86 150.662 114.666 149.469 114.666 147.996H141.334C141.334 149.469 140.14 150.662 138.666 150.662ZM146.666 99.9957C146.666 95.5785 143.084 91.9957 138.666 91.9957H117.334C112.916 91.9957 109.334 95.5785 109.334 99.9957H77.3335V89.3293H154.666V99.9957H146.666Z" fill="white"/>
</g>
<defs>
<clipPath id="clip0">
<rect width="160" height="160" fill="white"/>
</clipPath>
</defs>
</svg>
